<?xml version="1.0" encoding="UTF-8"?>
<svg width="512px" height="513px" viewBox="0 0 512 513" version="1.1" xmlns="http://www.w3.org/2000/svg" xmlns:xlink="http://www.w3.org/1999/xlink">
    <!-- Generator: Sketch 53.2 (72643) - https://sketchapp.com -->
    <title>Artboard</title>
    <desc>Created with Sketch.</desc>
    <g id="Artboard" stroke="none" stroke-width="1" fill="none" fill-rule="evenodd" transform="translate(0.000000, 1.000000)">
        <g id="clock" transform="translate(25.000000, 34.000000)" fill="#FFFFFF" fill-rule="nonzero">
            <path d="M461.116545,243.364395 C456.965594,201.629298 438.286313,162.24293 408.597987,132.522482 C383.241089,107.138149 352.108955,90.7873856 319.442773,83.560529 L319.442773,60.5249237 C332.798007,57.1825025 342.724195,45.0775178 342.724195,30.7141404 C342.724195,13.8213632 328.91777,2.84217094e-14 312.043251,2.84217094e-14 L247.07184,2.84217094e-14 C230.19732,2.84217094e-14 216.390895,13.8213632 216.390895,30.7141404 C216.390895,45.0775178 226.317083,57.1825025 239.672318,60.5249237 L239.672318,83.560529 C207.096374,90.8777213 176.144715,107.138149 150.787817,132.522482 C145.283295,138.03296 140.139725,143.904781 135.447345,149.957274 C135.176631,149.957274 134.996155,149.957274 134.725441,149.957274 L70.5661719,149.957274 C65.6030779,149.957274 61.5423647,154.02238 61.5423647,158.990844 C61.5423647,163.959308 65.6030779,168.024415 70.5661719,168.024415 L123.265206,168.024415 C116.677826,179.135707 111.35378,190.789013 107.293067,202.713327 L9.02380714,202.713327 C4.06071321,202.713327 0,206.778433 0,211.746897 C0,216.715361 4.06071321,220.780468 9.02380714,220.780468 L102.149497,220.780468 C99.5325928,232.253103 98.0887836,243.816073 97.6375933,255.469379 L57.7523657,255.469379 C52.7892718,255.469379 48.7285586,259.534486 48.7285586,264.50295 C48.7285586,269.471414 52.7892718,273.536521 57.7523657,273.536521 L97.9083075,273.536521 C98.6302121,285.189827 100.525212,296.843133 103.503068,308.225432 L45.1190357,308.225432 C40.1559418,308.225432 36.0952286,312.290539 36.0952286,317.259003 C36.0952286,322.227467 40.1559418,326.292574 45.1190357,326.292574 L109.368543,326.292574 C118.211874,349.779858 132.018299,371.731434 150.878055,390.521261 C180.566381,420.241709 220.000418,438.9412 261.780645,443.096643 C267.736358,443.728993 273.692071,444 279.647783,444 C314.840631,444 349.582289,433.792065 379.090138,414.55056 C383.241089,411.840488 384.414184,406.239674 381.707042,402.084232 C378.9999,397.928789 373.40514,396.754425 369.254188,399.464496 C304.643729,441.560936 218.195657,432.43703 163.601624,377.783927 C99.5325928,313.645575 99.5325928,209.398169 163.601624,145.259817 C227.670654,81.1214649 331.805389,81.1214649 395.874419,145.259817 C450.378215,199.822584 459.49226,286.364191 417.621795,350.954222 C414.914652,355.109664 416.087747,360.710478 420.238699,363.420549 C424.38965,366.130621 429.98441,364.956256 432.691553,360.800814 C455.160832,326.202238 465.177258,284.467141 461.116545,243.364395 Z M234.528748,30.7141404 C234.528748,23.7582909 240.213746,18.0671414 247.162078,18.0671414 L312.133489,18.0671414 C319.081821,18.0671414 324.766819,23.7582909 324.766819,30.7141404 C324.766819,37.6699898 319.081821,43.3611394 312.133489,43.3611394 L310.509204,43.3611394 L248.786363,43.3611394 L247.162078,43.3611394 C240.123508,43.3611394 234.528748,37.6699898 234.528748,30.7141404 Z M257.719932,80.3987792 L257.719932,61.4282808 L301.395159,61.4282808 L301.395159,80.3987792 C286.957067,78.5920651 272.248262,78.6824008 257.719932,80.3987792 Z" id="XMLID_389_"></path>
            <path d="M402,375 C399.66,375 397.32,375.99 395.61,377.61 C393.9,379.32 393,381.57 393,384 C393,386.34 393.99,388.68 395.61,390.39 C397.32,392.1 399.57,393 402,393 C404.34,393 406.68,392.01 408.39,390.39 C410.1,388.68 411,386.43 411,384 C411,381.66 410.01,379.32 408.39,377.61 C406.68,375.99 404.34,375 402,375 Z" id="XMLID_391_"></path>
            <path d="M280,121 C202.823985,121 140,183.803738 140,260.954882 C140,338.106026 202.823985,401 280,401 C357.176015,401 420,338.196262 420,261.045118 C420,183.893974 357.176015,121 280,121 Z M280,382.952949 C212.753063,382.952949 158.052869,328.270383 158.052869,261.045118 C158.052869,193.819852 212.753063,139.047051 280,139.047051 C347.246937,139.047051 401.947131,193.729617 401.947131,260.954882 C401.947131,328.180148 347.246937,382.952949 280,382.952949 Z" id="XMLID_394_"></path>
            <path d="M336.421132,191.698292 L291.910079,236.586987 C288.223305,234.773302 283.997003,233.685092 279.590858,233.685092 C275.184713,233.685092 270.958411,234.773302 267.271637,236.586987 L247.309105,216.455087 C243.802173,212.918402 238.13713,212.918402 234.630199,216.455087 C231.123267,219.991772 231.123267,225.704879 234.630199,229.241564 L254.592731,249.373464 C252.794305,253.091517 251.715249,257.353676 251.715249,261.797204 C251.715249,277.304207 264.214312,290 279.680779,290 C295.057325,290 307.646309,277.394892 307.646309,261.797204 C307.646309,257.353676 306.567254,253.091517 304.768827,249.373464 L348.020982,205.754348 L348.020982,205.754348 L349.369801,204.394084 C352.876733,200.857399 352.876733,195.144293 349.369801,191.607608 C345.86287,188.070923 339.928063,188.161607 336.421132,191.698292 Z M279.500937,271.953838 C274.015736,271.953838 269.51967,267.419626 269.51967,261.887888 C269.51967,256.35615 274.015736,251.821938 279.500937,251.821938 C284.986137,251.821938 289.482203,256.35615 289.482203,261.887888 C289.482203,267.419626 284.986137,271.953838 279.500937,271.953838 Z" id="XMLID_397_"></path>
            <path d="M376.12628,253 L367.87372,253 C362.993174,253 359,257.05 359,262 C359,266.95 362.993174,271 367.87372,271 L376.12628,271 C381.006826,271 385,266.95 385,262 C385,257.05 381.006826,253 376.12628,253 Z" id="XMLID_398_"></path>
            <path d="M191.12628,252 L182.87372,252 C177.993174,252 174,256.05 174,261 C174,265.95 177.993174,270 182.87372,270 L191.12628,270 C196.006826,270 200,265.95 200,261 C200,256.05 196.095563,252 191.12628,252 Z" id="XMLID_399_"></path>
            <path d="M280,182 C284.95,182 289,178.006826 289,173.12628 L289,164.87372 C289,159.993174 284.95,156 280,156 C275.05,156 271,159.993174 271,164.87372 L271,173.12628 C271,178.006826 275.05,182 280,182 Z" id="XMLID_400_"></path>
            <path d="M280,341 C275.05,341 271,344.993174 271,349.87372 L271,358.12628 C271,363.006826 275.05,367 280,367 C284.95,367 289,363.006826 289,358.12628 L289,349.87372 C289,344.993174 284.95,341 280,341 Z" id="XMLID_424_"></path>
            <path d="M9,308 C6.66,308 4.32,308.99 2.61,310.61 C0.9,312.23 0,314.66 0,317 C0,319.34 0.99,321.68 2.61,323.39 C4.23,325.1 6.57,326 9,326 C11.43,326 13.68,325.01 15.39,323.39 C17.1,321.68 18,319.43 18,317 C18,314.66 17.01,312.32 15.39,310.61 C13.68,308.99 11.34,308 9,308 Z" id="XMLID_425_"></path>
        </g>
    </g>
</svg>