<?xml version="1.0" encoding="UTF-8"?>
<svg width="512px" height="513px" viewBox="0 0 512 513" version="1.1" xmlns="http://www.w3.org/2000/svg" xmlns:xlink="http://www.w3.org/1999/xlink">
    <!-- Generator: Sketch 53.2 (72643) - https://sketchapp.com -->
    <title>Artboard</title>
    <desc>Created with Sketch.</desc>
    <g id="Artboard" stroke="none" stroke-width="1" fill="none" fill-rule="evenodd" transform="translate(0.000000, 1.000000)">
        <path d="M478,233.525082 L456.970437,233.525082 L456.970437,136.874739 C456.970437,113.725739 438.161388,94.8926545 415.041931,94.8926545 L386.567119,94.8926545 L357.569834,42.4477456 C353.128808,34.4698417 344.638612,29.5 335.495324,29.5 C331.184917,29.5 327.005128,30.5462825 323.217195,32.6388474 L211.66908,94.8926545 L86.9285068,94.8926545 C63.8090498,94.8926545 45,113.725739 45,136.874739 L45,425.517916 C45,448.666915 63.8090498,467.5 86.9285068,467.5 L415.041931,467.5 C438.161388,467.5 456.970437,448.666915 456.970437,425.517916 L456.970437,340.769036 L478,340.769036 L478,233.525082 L478,233.525082 Z M415.041931,111.633174 C427.973152,111.633174 438.553243,121.442072 439.990045,133.997462 L408.380392,133.997462 L395.971644,111.633174 L415.041931,111.633174 L415.041931,111.633174 Z M331.446154,47.4175873 C335.364706,45.1942371 340.72006,46.7636608 342.809955,50.6872201 L389.179487,134.128247 L175.74902,134.128247 L331.446154,47.4175873 Z M440.251282,425.38713 C440.251282,439.250373 428.887481,450.628695 415.041931,450.628695 L86.9285068,450.628695 C73.0829563,450.628695 61.7191554,439.250373 61.7191554,425.38713 L61.7191554,136.874739 C61.7191554,123.011496 73.0829563,111.633174 86.9285068,111.633174 L181.496229,111.633174 L141.135143,133.997462 L92.1532428,133.997462 C87.4509804,133.997462 83.7936652,137.790236 83.7936652,142.367722 C83.7936652,146.945208 87.5815988,150.737981 92.1532428,150.737981 L110.962293,150.737981 L417.654299,150.737981 L440.120664,150.737981 L440.120664,233.525082 L378.730015,233.525082 C350.255204,233.525082 327.005128,256.804867 327.005128,285.316064 L327.005128,288.978053 C327.005128,317.489251 350.255204,340.769036 378.730015,340.769036 L440.120664,340.769036 L440.251282,425.38713 L440.251282,425.38713 Z M461.150226,323.897731 L456.970437,323.897731 L378.730015,323.897731 C359.52911,323.897731 343.854902,308.203494 343.854902,288.978053 L343.854902,285.316064 C343.854902,266.090624 359.52911,250.396387 378.730015,250.396387 L456.970437,250.396387 L461.150226,250.396387 L461.150226,323.897731 Z M404.592459,287.800985 C404.592459,298.002239 396.232881,306.372499 386.044646,306.372499 C375.85641,306.372499 367.496833,298.002239 367.496833,287.800985 C367.496833,277.599731 375.85641,269.229471 386.044646,269.229471 C396.232881,269.229471 404.592459,277.599731 404.592459,287.800985 Z" id="Shape" stroke="#FFFFFF" stroke-width="8" fill="#FFFFFF" fill-rule="nonzero"></path>
    </g>
</svg>